<svg xmlns="http://www.w3.org/2000/svg">
  <!-- From https://simpleicons.org -->
  <defs>
    <symbol id="facebook" viewBox="0 0 24 24">
      <title>Facebook</title>
      <path d="M24 12.073c0-6.627-5.373-12-12-12s-12 5.373-12 12c0 5.99 4.388 10.954 10.125 11.854v-8.385H7.078v-3.47h3.047V9.43c0-3.007 1.792-4.669 4.533-4.669 1.312 0 2.686.235 2.686.235v2.953H15.83c-1.491 0-1.956.925-1.956 1.874v2.25h3.328l-.532 3.47h-2.796v8.385C19.612 23.027 24 18.062 24 12.073z"/>
    </symbol>
    <symbol id="instagram" viewBox="0 0 24 24">
      <title>Instagram</title>
      <path d="M12 0C8.74 0 8.333.015 7.053.072 5.775.132 4.905.333 4.14.63c-.789.306-1.459.717-2.126 1.384S.935 3.35.63 4.14C.333 4.905.131 5.775.072 7.053.012 8.333 0 8.74 0 12s.015 3.667.072 4.947c.06 1.277.261 2.148.558 2.913.306.788.717 1.459 1.384 2.126.667.666 1.336 1.079 2.126 1.384.766.296 1.636.499 2.913.558C8.333 23.988 8.74 24 12 24s3.667-.015 4.947-.072c1.277-.06 2.148-.262 2.913-.558.788-.306 1.459-.718 2.126-1.384.666-.667 1.079-1.335 1.384-2.126.296-.765.499-1.636.558-2.913.06-1.28.072-1.687.072-4.947s-.015-3.667-.072-4.947c-.06-1.277-.262-2.149-.558-2.913-.306-.789-.718-1.459-1.384-2.126C21.319 1.347 20.651.935 19.86.63c-.765-.297-1.636-.499-2.913-.558C15.667.012 15.26 0 12 0zm0 2.16c3.203 0 3.585.016 4.85.071 1.17.055 1.805.249 2.227.415.562.217.96.477 1.382.896.419.42.679.819.896 1.381.164.422.36 1.057.413 2.227.057 1.266.07 1.646.07 4.85s-.015 3.585-.074 4.85c-.061 1.17-.256 1.805-.421 2.227-.224.562-.479.96-.899 1.382-.419.419-.824.679-1.38.896-.42.164-1.065.36-2.235.413-1.274.057-1.649.07-4.859.07-3.211 0-3.586-.015-4.859-.074-1.171-.061-1.816-.256-2.236-.421-.569-.224-.96-.479-1.379-.899-.421-.419-.69-.824-.9-1.38-.165-.42-.359-1.065-.42-2.235-.045-1.26-.061-1.649-.061-4.844 0-3.196.016-3.586.061-4.861.061-1.17.255-1.814.42-2.234.21-.57.479-.96.9-1.381.419-.419.81-.689 1.379-.898.42-.166 1.051-.361 2.221-.421 1.275-.045 1.65-.06 4.859-.06l.045.03zm0 3.678c-3.405 0-6.162 2.76-6.162 6.162 0 3.405 2.76 6.162 6.162 6.162 3.405 0 6.162-2.76 6.162-6.162 0-3.405-2.76-6.162-6.162-6.162zM12 16c-2.21 0-4-1.79-4-4s1.79-4 4-4 4 1.79 4 4-1.79 4-4 4zm7.846-10.405c0 .795-.646 1.44-1.44 1.44-.795 0-1.44-.646-1.44-1.44 0-.794.646-1.439 1.44-1.439.793-.001 1.44.645 1.44 1.439z"/>
    </symbol>
    <symbol id="linkedin" viewBox="0 0 24 24">
      <title>LinkedIn</title>
      <path d="M20.447 20.452h-3.554v-5.569c0-1.328-.027-3.037-1.852-3.037-1.853 0-2.136 1.445-2.136 2.939v5.667H9.351V9h3.414v1.561h.046c.477-.9 1.637-1.85 3.37-1.85 3.601 0 4.267 2.37 4.267 5.455v6.286zM5.337 7.433c-1.144 0-2.063-.926-2.063-2.065 0-1.138.92-2.063 2.063-2.063 1.14 0 2.064.925 2.064 2.063 0 1.139-.925 2.065-2.064 2.065zm1.782 13.019H3.555V9h3.564v11.452zM22.225 0H1.771C.792 0 0 .774 0 1.729v20.542C0 23.227.792 24 1.771 24h20.451C23.2 24 24 23.227 24 22.271V1.729C24 .774 23.2 0 22.222 0h.003z"/>
    </symbol>
    <symbol id="messenger" viewBox="0 0 24 24">
      <title>Messenger</title>
      <path d="M.001 11.639C.001 4.949 5.241 0 12.001 0S24 4.95 24 11.639c0 6.689-5.24 11.638-12 11.638-1.21 0-2.38-.16-3.47-.46a.96.96 0 00-.64.05l-2.39 1.05a.96.96 0 01-1.35-.85l-.07-2.14a.97.97 0 00-.32-.68A11.39 11.389 0 01.002 11.64zm8.32-2.19l-3.52 5.6c-.35.53.32 1.139.82.75l3.79-2.87c.26-.2.6-.2.87 0l2.8 2.1c.84.63 2.04.4 2.6-.48l3.52-5.6c.35-.53-.32-1.13-.82-.75l-3.79 2.87c-.25.2-.6.2-.86 0l-2.8-2.1a1.8 1.8 0 00-2.61.48z"/>
    </symbol>
    <symbol id="twitter" viewBox="0 0 24 24">
      <title>Twitter</title>
      <path d="M23.953 4.57a10 10 0 01-2.825.775 4.958 4.958 0 002.163-2.723c-.951.555-2.005.959-3.127 1.184a4.92 4.92 0 00-8.384 4.482C7.69 8.095 4.067 6.13 1.64 3.162a4.822 4.822 0 00-.666 2.475c0 1.71.87 3.213 2.188 4.096a4.904 4.904 0 01-2.228-.616v.06a4.923 4.923 0 003.946 4.827 4.996 4.996 0 01-2.212.085 4.936 4.936 0 004.604 3.417 9.867 9.867 0 01-6.102 2.105c-.39 0-.779-.023-1.17-.067a13.995 13.995 0 007.557 2.209c9.053 0 13.998-7.496 13.998-13.985 0-.21 0-.42-.015-.63A9.935 9.935 0 0024 4.59z"/>
    </symbol>
    <symbol id="phone" viewBox="0 0 24 24" fill="none">
      <title>Phone</title>
      <path d="M9.84521 5.8452L7.20713 3.20712C6.8166 2.81659 6.18343 2.81659 5.79291 3.20713L4.08059 4.9195C3.69759 5.30251 3.39168 5.75814 3.29584 6.29124C3.00133 7.92935 2.92378 11.9238 7.50001 16.5C12.0761 21.0761 16.0705 20.9987 17.7087 20.7043C18.2419 20.6084 18.6976 20.3025 19.0807 19.9194L20.7929 18.2071C21.1834 17.8166 21.1834 17.1834 20.7929 16.7929L18.1548 14.1548C17.7853 13.7853 17.1937 13.7626 16.7969 14.1027L14.7032 15.8973C14.3065 16.2374 13.7148 16.2147 13.3453 15.8452L8.15483 10.6548C7.78533 10.2853 7.76261 9.69364 8.10267 9.2969L9.89736 7.2031C10.2374 6.80636 10.2147 6.21469 9.84521 5.8452Z" stroke="#4A4A4A" stroke-width="2" stroke-linecap="round"/>
    </symbol>
    <symbol id="email" viewBox="0 0 24 24">
      <title>Email</title>
      <path d="M21 5C21.2656 5 21.5069 5.10351 21.686 5.27239L21.7237 5.30533C21.9178 5.49275 22.0087 5.73063 21.9993 5.96524C21.9998 5.97645 22 5.9882 22 6V18C22 18.5523 21.5523 19 21 19H3C2.44772 19 2 18.5523 2 18V6L2.002 5.963L2 5.93278C2 5.66493 2.12857 5.42345 2.33448 5.25333C2.51146 5.09579 2.74454 5 3 5H21ZM10.353 13.013L5.702 17H18.297L13.646 13.013L12.7146 13.7574C12.3432 14.0539 11.7922 14.0786 11.3909 13.8315L11.2854 13.7574L10.353 13.013ZM20 7.941L15.237 11.743L20 15.826V7.941ZM4 7.942V15.825L8.762 11.743L4 7.942ZM18 7H6L12.0005 12L18 7Z"/>
    </symbol>
    <symbol id="menu" viewBox="0 0 24 24">
      <title>Menu</title>
      <path d="M21 18C21.5523 18 22 18.4477 22 19C22 19.5523 21.5523 20 21 20H3C2.44772 20 2 19.5523 2 19C2 18.4477 2.44772 18 3 18H21ZM21 11C21.5523 11 22 11.4477 22 12C22 12.5523 21.5523 13 21 13H3C2.44772 13 2 12.5523 2 12C2 11.4477 2.44772 11 3 11H21ZM21 4C21.5523 4 22 4.44772 22 5C22 5.55228 21.5523 6 21 6H3C2.44772 6 2 5.55228 2 5C2 4.44772 2.44772 4 3 4H21Z"/>
    </symbol>
  </defs>
</svg>
